<?xml version="1.0" encoding="UTF-8"?>
<svg id="Camada_1" xmlns="http://www.w3.org/2000/svg" version="1.1" viewBox="0 0 199.99 180.01">
  <!-- Generator: Adobe Illustrator 30.6.0, SVG Export Plug-In . SVG Version: 2.1.4 Build 109)  -->
  <defs>
    <style>
      .st0 {
        fill: #38ae75;
      }
    </style>
  </defs>
  <path class="st0" d="M188.12,11.87c-7.65-7.65-17.78-11.87-28.53-11.87H40.41c-10.73,0-20.87,4.22-28.54,11.88C4.21,19.54,0,29.66,0,40.41v67.47c0,10.73,4.22,20.87,11.88,28.54,7.65,7.65,17.77,11.86,28.67,11.86h0c3.65-.17,9.09-2.63,9.09-8.75,0-3.49-1.46-5.55-2.68-6.66-2.76-2.51-6.46-2.25-6.56-2.23-6.07,0-11.78-2.37-16.09-6.69-4.3-4.3-6.67-10.01-6.67-16.07V40.41c0-6.07,2.38-11.78,6.7-16.09,4.29-4.3,10-6.67,16.07-6.67h119.18c6.07,0,11.78,2.38,16.09,6.7,4.3,4.29,6.67,10,6.67,16.07v67.47c0,6.07-2.38,11.78-6.7,16.09-4.3,4.3-10,6.67-16.07,6.67h-67.56c-2.26,0-4.4.85-5.75,2.16l-42.71,32.4-.43.38c-2.91,3.08-2.49,8.03-.43,10.85,1.39,1.89,3.43,3.12,5.76,3.47.45.07.89.1,1.34.1,1.86,0,3.67-.59,5.21-1.73l39.85-29.99h64.71c10.73,0,20.87-4.22,28.54-11.88,7.65-7.65,11.87-17.78,11.87-28.53V40.41c0-10.73-4.22-20.87-11.88-28.54h.01Z"/>
  <path class="st0" d="M74.55,60.1l30.83,37.87c1.44,1.78,3.61,2.81,5.91,2.81h12.19c3.11,8.59,11.32,14.76,20.97,14.76,12.31,0,22.32-10.01,22.32-22.32s-10.01-22.32-22.32-22.32c-9.61,0-17.79,6.11-20.93,14.65h-8.6l-30.83-37.87c-1.44-1.78-3.61-2.81-5.91-2.81h-10.79c-2.88-6.08-9.02-10.33-16.19-10.33-9.9,0-17.95,8.05-17.95,17.95s8.05,17.94,17.95,17.94c7.16,0,13.31-4.25,16.19-10.33h7.17-.01Z"/>
</svg>