<?xml version="1.0" encoding="UTF-8"?>
<svg id="Camada_1" xmlns="http://www.w3.org/2000/svg" version="1.1" viewBox="0 0 566.93 269.29">
  <!-- Generator: Adobe Illustrator 30.6.0, SVG Export Plug-In . SVG Version: 2.1.4 Build 109)  -->
  <defs>
    <style>
      .st0 {
        fill: #3aaf75;
      }

      .st1 {
        fill: #fff;
      }
    </style>
  </defs>
  <g>
    <path class="st0" d="M364.64,10.93c-7.05-7.05-16.38-10.93-26.28-10.93h-109.8c-9.89,0-19.23,3.89-26.29,10.95-7.05,7.05-10.93,16.38-10.93,26.28v66.41c0,9.88,3.89,19.22,10.95,26.3,7.05,7.05,16.37,10.93,26.41,10.93h.01c3.37-.15,8.37-2.42,8.37-8.06,0-3.22-1.34-5.12-2.47-6.14-2.54-2.32-5.95-2.07-6.04-2.06-5.59,0-10.85-2.19-14.83-6.17-3.96-3.96-6.15-9.22-6.15-14.81V37.23c0-5.59,2.19-10.85,6.17-14.83,3.96-3.96,9.21-6.15,14.81-6.15h109.8c5.59,0,10.85,2.19,14.83,6.17,3.96,3.96,6.15,9.21,6.15,14.81v66.41c0,5.59-2.19,10.85-6.17,14.82-3.96,3.96-9.22,6.15-14.8,6.15h-62.24c-2.08,0-4.05.79-5.3,1.99l-39.35,29.85-.39.35c-2.68,2.84-2.29,7.4-.39,9.99,1.28,1.74,3.16,2.88,5.3,3.2.41.06.82.09,1.23.09,1.71,0,3.38-.55,4.8-1.6l36.72-27.62h59.61c9.89,0,19.22-3.89,26.29-10.95,7.05-7.05,10.93-16.38,10.93-26.28V37.23c0-9.89-3.89-19.23-10.95-26.29Z"/>
    <path class="st0" d="M260.02,57.41l28.41,34.89c1.33,1.64,3.33,2.59,5.44,2.59h11.23c2.86,7.91,10.43,13.59,19.32,13.59,11.34,0,20.56-9.22,20.56-20.56s-9.22-20.56-20.56-20.56c-8.85,0-16.39,5.63-19.28,13.49h-7.93l-28.41-34.89c-1.33-1.64-3.33-2.59-5.44-2.59h-9.94c-2.65-5.6-8.31-9.52-14.91-9.52-9.12,0-16.53,7.42-16.53,16.53s7.42,16.53,16.53,16.53c6.6,0,12.26-3.91,14.91-9.52h6.61Z"/>
  </g>
  <g>
    <path class="st1" d="M422.77,243.47h-41.92c1.77,4.63,5.96,7.06,12.13,7.06,5.52,0,8.6-1.43,12.57-4.41l13.02,13.13c-5.85,6.4-14.34,9.71-26.36,9.71-22.17,0-36.51-13.35-36.51-31.33s14.67-31.22,34.19-31.22c17.87,0,33.2,10.81,33.2,31.22,0,1.76-.22,4.08-.33,5.85ZM380.41,231.45h19.41c-.99-5.07-4.63-8.05-9.71-8.05s-8.71,2.98-9.71,8.05Z"/>
    <path class="st1" d="M427.18,263l6.84-16.44c5.74,3.42,13.9,5.41,21.07,5.41,6.07,0,7.72-1.1,7.72-2.87,0-6.18-34.75,2.1-34.75-22.06,0-11.36,10.59-20.63,30.89-20.63,8.82,0,18.2,1.66,24.6,4.96l-6.84,16.44c-6.18-3.42-12.35-4.41-17.43-4.41-6.4,0-8.16,1.43-8.16,2.87,0,6.29,34.64-1.88,34.64,22.28,0,10.92-10.26,20.41-31.22,20.41-10.37,0-21.18-2.43-27.36-5.96Z"/>
    <path class="st1" d="M522.15,249.32l-3.97,4.3v14.23h-24.93v-81.85h24.93v39.05l17.32-17.54h29.45l-24.93,26.14,26.91,34.19h-30.11l-14.67-18.53Z"/>
    <path class="st1" d="M306.62,190.63h-38.06v18.5h8.33l-8.33,21.78v36.93h38.06c25.81,0,43.57-14.67,43.57-38.61s-17.76-38.61-43.57-38.61ZM305.52,247.55h-10.92v-36.62h10.92c10.92,0,18.42,6.51,18.42,18.31s-7.5,18.31-18.42,18.31Z"/>
    <path class="st0" d="M27.58,202.79l-4.78,23.69h37.7l-2.45,12.23H20.46l-6,29.8H0l15.57-77.84h56.82l-2.45,12.12H27.58Z"/>
    <path class="st0" d="M85.96,186h13.9l-16.46,82.51h-13.9l16.46-82.51Z"/>
    <path class="st0" d="M102.19,243.16c0-19.91,14.68-34.7,35.25-34.7,17.57,0,28.91,10.23,28.91,26.02,0,19.91-14.79,34.81-35.36,34.81-17.46,0-28.8-10.45-28.8-26.13ZM152.35,235.15c0-9.23-5.67-14.9-15.68-14.9-11.79,0-20.46,9.12-20.46,22.24,0,9.23,5.67,14.9,15.68,14.9,11.79,0,20.46-9.12,20.46-22.24Z"/>
    <path class="st0" d="M276.89,209.13l-33.14,59.38h-13.68l-8.01-40.92-23.24,40.92h-13.46l-10.9-59.38h12.68l7.56,43.7,24.8-43.7h11.9l7.89,43.7,24.46-43.7h13.12Z"/>
  </g>
</svg>