<?xml version="1.0" encoding="UTF-8"?>
<svg id="Camada_1" xmlns="http://www.w3.org/2000/svg" version="1.1" viewBox="0 0 100 90.83">
  <!-- Generator: Adobe Illustrator 30.6.0, SVG Export Plug-In . SVG Version: 2.1.4 Build 109)  -->
  <defs>
    <style>
      .st0 {
        fill: #fff;
      }
    </style>
  </defs>
  <path class="st0" d="M94.06,5.93c-3.83-3.83-8.89-5.93-14.26-5.93H20.2c-5.37,0-10.44,2.11-14.27,5.94C2.11,9.77,0,14.83,0,20.2v34.56c0,5.36,2.11,10.43,5.94,14.27,3.82,3.82,8.89,5.93,14.33,5.93h0c1.83-.08,4.54-1.32,4.54-4.37,0-1.75-.73-2.78-1.34-3.33-1.38-1.26-3.23-1.12-3.28-1.12-3.03,0-5.89-1.19-8.05-3.35-2.15-2.15-3.34-5-3.34-8.04V20.2c0-3.03,1.19-5.89,3.35-8.05,2.15-2.15,5-3.34,8.04-3.34h59.59c3.03,0,5.89,1.19,8.05,3.35,2.15,2.15,3.34,5,3.34,8.04v34.56c0,3.03-1.19,5.89-3.35,8.05-2.15,2.15-5,3.34-8.03,3.34h-33.78c-1.13,0-2.2.43-2.88,1.08l-21.36,16.2-.21.19c-1.45,1.54-1.24,4.01-.21,5.42.69.94,1.72,1.56,2.88,1.74.22.03.45.05.67.05.93,0,1.83-.3,2.61-.87l19.93-14.99h32.35c5.37,0,10.43-2.11,14.27-5.94,3.83-3.83,5.93-8.89,5.93-14.26V20.2c0-5.37-2.11-10.44-5.94-14.27Z"/>
  <path class="st0" d="M37.27,30.05l15.42,18.94c.72.89,1.81,1.4,2.95,1.4h6.09c1.55,4.29,5.66,7.38,10.48,7.38,6.15,0,11.16-5.01,11.16-11.16s-5.01-11.16-11.16-11.16c-4.8,0-8.9,3.06-10.46,7.32h-4.3l-15.42-18.94c-.72-.89-1.81-1.4-2.95-1.4h-5.4c-1.44-3.04-4.51-5.17-8.09-5.17-4.95,0-8.97,4.03-8.97,8.97s4.03,8.97,8.97,8.97c3.58,0,6.66-2.12,8.09-5.16h3.59Z"/>
</svg>