<?xml version="1.0" encoding="UTF-8"?>
<svg id="Camada_1" xmlns="http://www.w3.org/2000/svg" version="1.1" viewBox="0 0 566.93 83.19">
  <!-- Generator: Adobe Illustrator 30.6.0, SVG Export Plug-In . SVG Version: 2.1.4 Build 109)  -->
  <defs>
    <style>
      .st0 {
        fill: #616160;
      }
    </style>
  </defs>
  <path class="st0" d="M38.83,43.36c21.44,0,38.82,17.38,38.83,38.81V4.54c-21.45,0-38.83,17.38-38.83,38.83-21.45-.01-38.83,17.38-38.83,38.82h77.65c-21.44,0-38.83-17.38-38.83-38.83h.01Z"/>
  <g>
    <path class="st0" d="M160.16,65.24v16.95h-62.25V4.65h60.81v16.95h-39.1v13.07h34.45v16.39h-34.45v14.18h40.54Z"/>
    <path class="st0" d="M234.38,22.15l-24.81,60.04h-21.71l-24.7-60.04h21.6l14.4,36.67,15.18-36.67h20.05-.01Z"/>
    <path class="st0" d="M293.98,48.85v33.34h-19.61v-7.75c-2.99,5.76-8.97,8.75-17.72,8.75-14.4,0-22.38-8.09-22.38-18.5,0-11.08,8.09-17.95,26.7-17.95h11.96c-.33-6.09-4.43-9.53-12.74-9.53-5.76,0-12.18,1.99-16.28,5.21l-7.09-14.29c6.87-4.54,17.06-6.98,26.47-6.98,19.5,0,30.68,8.64,30.68,27.69h.01ZM272.93,62.92v-5.21h-9.08c-6.76,0-9.19,2.44-9.19,6.09s2.88,6.09,7.86,6.09c4.65,0,8.75-2.22,10.41-6.98h0Z"/>
    <path class="st0" d="M328.43,9.75l-6.65,33.12h41.21l-1,5.1h-41.21l-6.87,34.23h-5.65l15.51-77.54h51.84l-1.11,5.1h-46.08,0Z"/>
    <path class="st0" d="M392.68,0h5.54l-16.39,82.19h-5.54L392.68,0Z"/>
    <path class="st0" d="M404.31,58.6c0-19.83,13.85-34.67,33.12-34.67,15.62,0,25.59,9.3,25.59,24.04,0,19.94-13.85,34.67-33.12,34.67-15.62,0-25.59-9.41-25.59-24.04ZM457.48,48.3c0-12.3-7.53-19.39-20.49-19.39-15.62,0-27.14,12.41-27.14,29.35,0,12.3,7.53,19.39,20.49,19.39,15.62,0,27.14-12.3,27.14-29.35h0Z"/>
    <path class="st0" d="M566.93,24.37l-32.68,57.82h-5.32l-10.52-50.29-28.8,50.29h-5.32l-11.52-57.82h5.1l10.08,51.62,29.35-51.62h4.76l10.41,51.51,29.02-51.51h5.44Z"/>
  </g>
</svg>