<?xml version="1.0" encoding="UTF-8"?>
<svg id="Camada_1" xmlns="http://www.w3.org/2000/svg" version="1.1" viewBox="0 0 566.93 124.72">
  <!-- Generator: Adobe Illustrator 30.6.0, SVG Export Plug-In . SVG Version: 2.1.4 Build 109)  -->
  <defs>
    <style>
      .st0 {
        fill: #3aaf75;
      }

      .st1 {
        fill: #fff;
      }
    </style>
  </defs>
  <g>
    <path class="st0" d="M129.16,8.15c-5.25-5.25-12.21-8.15-19.58-8.15H27.74c-7.37,0-14.33,2.9-19.6,8.16C2.89,13.41,0,20.37,0,27.74v47.46c0,7.37,2.9,14.33,8.16,19.6,5.25,5.25,12.2,8.14,19.68,8.14h0c2.51-.11,6.24-1.81,6.24-6,0-2.4-1-3.81-1.84-4.57-1.9-1.73-4.44-1.54-4.5-1.53-4.17,0-8.09-1.63-11.05-4.59-2.95-2.95-4.58-6.87-4.58-11.03V27.74c0-4.17,1.63-8.09,4.6-11.05,2.95-2.95,6.87-4.58,11.03-4.58h81.83c4.17,0,8.09,1.63,11.05,4.6,2.95,2.95,4.58,6.87,4.58,11.03v47.46c0,4.17-1.63,8.09-4.6,11.05-2.95,2.95-6.87,4.58-11.03,4.58h-46.39c-1.55,0-3.02.59-3.95,1.48l-29.32,22.24-.29.26c-2,2.12-1.71,5.51-.29,7.45.95,1.3,2.36,2.14,3.95,2.38.31.05.61.07.92.07,1.28,0,2.52-.41,3.58-1.19l27.36-20.59h44.42c7.37,0,14.33-2.9,19.6-8.16,5.25-5.25,8.15-12.21,8.15-19.58V27.74c0-7.37-2.9-14.33-8.16-19.6Z"/>
    <path class="st0" d="M51.18,41.26l21.17,26c.99,1.22,2.48,1.93,4.05,1.93h8.37c2.13,5.9,7.77,10.13,14.4,10.13,8.45,0,15.32-6.87,15.32-15.32s-6.87-15.32-15.32-15.32c-6.6,0-12.22,4.2-14.37,10.06h-5.91l-21.17-26c-.99-1.22-2.48-1.93-4.05-1.93h-7.41c-1.97-4.18-6.19-7.09-11.11-7.09-6.79,0-12.32,5.53-12.32,12.32s5.53,12.32,12.32,12.32c4.92,0,9.14-2.92,11.11-7.09h4.92Z"/>
  </g>
  <path class="st1" d="M460.08,65.77h-31.07c1.31,3.43,4.41,5.23,8.99,5.23,4.09,0,6.38-1.06,9.32-3.27l9.65,9.73c-4.33,4.74-10.63,7.19-19.54,7.19-16.43,0-27.06-9.89-27.06-23.22s10.87-23.14,25.34-23.14c13.24,0,24.61,8.01,24.61,23.14,0,1.31-.16,3.02-.25,4.33ZM428.69,56.85h14.39c-.74-3.76-3.43-5.97-7.19-5.97s-6.46,2.21-7.19,5.97Z"/>
  <path class="st1" d="M463.35,80.24l5.07-12.18c4.25,2.53,10.3,4.01,15.61,4.01,4.5,0,5.72-.82,5.72-2.13,0-4.58-25.75,1.55-25.75-16.35,0-8.42,7.85-15.29,22.89-15.29,6.54,0,13.49,1.23,18.23,3.68l-5.07,12.18c-4.58-2.53-9.16-3.27-12.92-3.27-4.74,0-6.05,1.06-6.05,2.13,0,4.66,25.67-1.39,25.67,16.51,0,8.09-7.6,15.12-23.14,15.12-7.68,0-15.7-1.8-20.27-4.41Z"/>
  <path class="st1" d="M533.74,70.1l-2.94,3.19v10.55h-18.48V23.17h18.48v28.94l12.83-13h21.83l-18.48,19.38,19.95,25.34h-22.32l-10.87-13.73Z"/>
  <path class="st1" d="M374,26.61h-28.2v13.71h6.17l-6.17,16.14v27.37h28.2c19.13,0,32.29-10.87,32.29-28.61s-13.16-28.61-32.29-28.61ZM373.19,68.79h-8.09v-27.14h8.09c8.09,0,13.65,4.82,13.65,13.57s-5.56,13.57-13.65,13.57Z"/>
  <path class="st0" d="M167.19,35.62l-3.54,17.55h27.94l-1.81,9.07h-27.86l-4.45,22.09h-10.71l11.54-57.69h42.11l-1.81,8.98h-31.4Z"/>
  <path class="st0" d="M210.46,23.17h10.3l-12.2,61.15h-10.3l12.2-61.15Z"/>
  <path class="st0" d="M222.5,65.53c0-14.75,10.88-25.71,26.13-25.71,13.02,0,21.43,7.58,21.43,19.29,0,14.75-10.96,25.8-26.21,25.8-12.94,0-21.35-7.75-21.35-19.37ZM259.67,59.6c0-6.84-4.2-11.04-11.62-11.04-8.74,0-15.16,6.76-15.16,16.48,0,6.84,4.2,11.04,11.62,11.04,8.74,0,15.16-6.76,15.16-16.48Z"/>
  <path class="st0" d="M351.97,40.31l-24.56,44.01h-10.14l-5.93-30.33-17.22,30.33h-9.97l-8.08-44.01h9.4l5.6,32.39,18.38-32.39h8.82l5.85,32.39,18.13-32.39h9.72Z"/>
</svg>